<svg xmlns="http://www.w3.org/2000/svg" width="12" height="16" viewBox="0 0 12 16"><g><g><g><path fill="#b62e55" d="M9.864 8.228l-3.856 6.438L2.052 8.29a4.563 4.563 0 0 1-.687-2.402 4.584 4.584 0 0 1 4.574-4.574 4.581 4.581 0 0 1 4.572 4.574c0 .826-.226 1.636-.647 2.34zM5.94.406A5.488 5.488 0 0 0 .457 5.888a5.47 5.47 0 0 0 .818 2.883l4.352 7.013c.084.135.23.216.388.216h.004a.457.457 0 0 0 .388-.222l4.241-7.08a5.476 5.476 0 0 0 .774-2.81A5.488 5.488 0 0 0 5.939.406z"/></g><g><path fill="#b62e55" d="M5.94 7.722a1.835 1.835 0 0 1-1.834-1.833 1.84 1.84 0 0 1 1.833-1.834c1.008 0 1.83.826 1.83 1.834 0 .995-.8 1.833-1.83 1.833zm0-4.575A2.744 2.744 0 0 0 3.197 5.89a2.738 2.738 0 0 0 2.741 2.74A2.736 2.736 0 0 0 8.68 5.89a2.744 2.744 0 0 0-2.74-2.742z"/></g></g></g></svg>