<svg xmlns="http://www.w3.org/2000/svg" width="27" height="27" viewBox="0 0 27 27"><g><g><path fill="#b50f44" d="M14.548 21.596h-3.222v-7.721H9.819v-2.743h1.507v-.284c.009-.62-.014-1.243.034-1.86.074-.945.421-1.77 1.234-2.335.613-.425 1.314-.539 2.04-.543.707-.005 1.415.005 2.123.011.087 0 .202-.032.201.123v2.52c-.099.004-.183.01-.267.011-.51.006-1.021-.005-1.53.021-.364.02-.58.22-.596.578-.027.574-.007 1.15-.007 1.756h2.441c-.041.425-.077.816-.118 1.206-.046.45-.105.899-.14 1.35-.012.157-.07.19-.214.189-.648-.006-1.297-.003-1.98-.003zm12.207-8.201C26.751 6.032 20.747.033 13.39.043 6.032.053.05 6.035.043 13.392c-.008 7.357 5.993 13.361 13.354 13.363 7.36.002 13.362-6.001 13.358-13.36z"/></g></g></svg>