<svg xmlns="http://www.w3.org/2000/svg" width="17" height="13" viewBox="0 0 17 13"><g><g><g><g><path fill="#b62e55" d="M13.21 9.28a.24.24 0 0 1-.167-.066L10.245 6.59a.243.243 0 1 1 .333-.354l2.798 2.625a.243.243 0 0 1-.166.42z"/><path fill="none" stroke="#ac4664" stroke-miterlimit="50" stroke-width=".2" d="M13.21 9.28a.24.24 0 0 1-.167-.066L10.245 6.59a.243.243 0 1 1 .333-.354l2.798 2.625a.243.243 0 0 1-.166.42z"/></g><g><path fill="#b62e55" d="M3.87 9.28a.243.243 0 0 1-.167-.42l2.8-2.625a.243.243 0 0 1 .332.354L4.036 9.214a.24.24 0 0 1-.166.066z"/><path fill="none" stroke="#ac4664" stroke-miterlimit="50" stroke-width=".2" d="M3.87 9.28a.243.243 0 0 1-.167-.42l2.8-2.625a.243.243 0 0 1 .332.354L4.036 9.214a.24.24 0 0 1-.166.066z"/></g></g><g><path fill="#b62e55" d="M14.864 1.486a.73.73 0 0 1 .73.73v8.29a.73.73 0 0 1-.73.729H2.216a.73.73 0 0 1-.73-.73v-8.29a.73.73 0 0 1 .73-.729zm0 10.235c.67 0 1.216-.545 1.216-1.216v-8.29c0-.67-.546-1.215-1.216-1.215H2.216C1.546 1 1 1.545 1 2.216v8.29c0 .67.546 1.215 1.216 1.215h12.648z"/><path fill="none" stroke="#ac4664" stroke-miterlimit="50" stroke-width=".2" d="M14.864 1.486a.73.73 0 0 1 .73.73v8.29a.73.73 0 0 1-.73.729H2.216a.73.73 0 0 1-.73-.73v-8.29a.73.73 0 0 1 .73-.729zm0 10.235c.67 0 1.216-.545 1.216-1.216v-8.29c0-.67-.546-1.215-1.216-1.215H2.216C1.546 1 1 1.545 1 2.216v8.29c0 .67.546 1.215 1.216 1.215h12.648z"/></g><g><path fill="#b62e55" d="M8.54 7.582a1.36 1.36 0 0 1-.893-.322L1.404 1.814a.244.244 0 0 1-.024-.344.245.245 0 0 1 .343-.023l6.244 5.446a.91.91 0 0 0 1.146 0l6.236-5.437a.243.243 0 0 1 .32.366L9.433 7.26c-.247.215-.57.322-.893.322z"/><path fill="none" stroke="#ac4664" stroke-miterlimit="50" stroke-width=".2" d="M8.54 7.582a1.36 1.36 0 0 1-.893-.322L1.404 1.814a.244.244 0 0 1-.024-.344.245.245 0 0 1 .343-.023l6.244 5.446a.91.91 0 0 0 1.146 0l6.236-5.437a.243.243 0 0 1 .32.366L9.433 7.26c-.247.215-.57.322-.893.322z"/></g></g></g></svg>