<svg xmlns="http://www.w3.org/2000/svg" width="14" height="14" viewBox="0 0 14 14"><defs><clipPath id="jfs4a"><path d="M0 14.012V0h13.941v14.012z"/></clipPath></defs><g><g><g><g><path fill="#b62e55" d="M0 14.012V0h13.941v14.012z"/></g><g clip-path="url(#jfs4a)"><path fill="#b62e55" d="M12.074 11.769c-.003 0-.003.003 0 0-.115.124-.232.236-.36.36a7.75 7.75 0 0 0-.567.588c-.297.318-.648.468-1.107.468-.044 0-.09 0-.135-.003-.874-.056-1.686-.398-2.296-.689a13.077 13.077 0 0 1-4.343-3.402c-1.004-1.21-1.675-2.328-2.12-3.529C.873 4.83.773 4.26.816 3.72c.03-.344.163-.63.407-.874l1.004-1.004c.144-.135.297-.209.447-.209.185 0 .335.112.43.206l.008.01c.18.167.35.34.53.526.091.094.186.188.28.286l.803.803c.312.312.312.6 0 .912-.085.086-.167.171-.253.253-.247.253-.483.489-.739.718-.006.006-.011.01-.014.015-.253.253-.206.5-.153.668l.008.027c.21.506.504.983.951 1.55l.003.004c.812 1 1.669 1.78 2.613 2.378.121.076.245.138.362.197.106.053.206.103.292.156l.035.02c.1.05.194.074.292.074.244 0 .397-.153.447-.203l1.006-1.007c.1-.1.26-.22.445-.22.182 0 .332.114.424.214l.005.006 1.622 1.622c.303.3.303.61.003.921zM11.02 8.67c-.285-.297-.63-.456-.994-.456-.362 0-.71.156-1.007.453l-.93.927-.226-.117c-.106-.053-.207-.103-.292-.157C6.7 8.767 5.908 8.046 5.15 7.113c-.368-.465-.615-.856-.795-1.253.242-.221.465-.45.683-.671l.247-.25c.618-.619.618-1.42 0-2.037l-.803-.804a12.637 12.637 0 0 1-.274-.28c-.176-.182-.362-.37-.553-.547C3.369.99 3.027.84 2.668.84s-.706.15-1 .432l-.006.006L.66 2.287a2.154 2.154 0 0 0-.639 1.368c-.07.86.183 1.66.377 2.184.477 1.286 1.189 2.478 2.251 3.755a13.853 13.853 0 0 0 4.612 3.611c.677.321 1.58.7 2.59.766.062.002.127.005.185.005.68 0 1.251-.244 1.699-.73.003-.005.008-.008.011-.014.153-.186.33-.353.515-.533.127-.12.256-.247.383-.38.291-.303.444-.656.444-1.018 0-.365-.156-.715-.453-1.01z"/></g><g clip-path="url(#jfs4a)"><path fill="#b62e55" d="M7.536 3.35c.77.129 1.471.494 2.03 1.053.56.559.922 1.26 1.054 2.03.033.195.2.33.392.33.023 0 .044-.003.067-.006a.398.398 0 0 0 .327-.459 4.538 4.538 0 0 0-1.274-2.457 4.538 4.538 0 0 0-2.458-1.275.4.4 0 0 0-.459.324.393.393 0 0 0 .32.46z"/></g><g clip-path="url(#jfs4a)"><path fill="#b62e55" d="M13.928 6.183a7.47 7.47 0 0 0-2.098-4.046A7.47 7.47 0 0 0 7.783.038a.396.396 0 1 0-.13.783 6.687 6.687 0 0 1 3.617 1.875 6.667 6.667 0 0 1 1.875 3.617c.033.194.2.33.392.33.023 0 .044-.004.067-.007a.39.39 0 0 0 .324-.453z"/></g></g></g></g></svg>