<svg xmlns="http://www.w3.org/2000/svg" width="27" height="27" viewBox="0 0 27 27"><g><g><g><g><path fill="#c00e42" d="M13.343 6.325c1.125 0 2.252-.05 3.372.012 1.499.084 2.65.793 3.36 2.145.312.598.439 1.25.442 1.919.011 2.087.028 4.176-.001 6.263-.035 2.431-1.72 4.091-4.148 4.112-2.038.017-4.076.015-6.113 0-2.055-.015-3.594-1.206-4.026-3.09a3.135 3.135 0 0 1-.098-.682c-.008-2.289-.055-4.578.009-6.865.06-2.163 1.723-3.749 3.891-3.812 1.103-.031 2.208-.005 3.312-.005zm13.451 6.507c-.1-.754-.154-1.517-.308-2.26C25.407 5.377 21.23 1.265 16.036.256 9.523-1.01 3.19 2.519.841 8.72-1.793 15.68 1.98 23.66 9.027 26.028c6.708 2.255 13.817-.882 16.662-7.364a12.774 12.774 0 0 0 1.05-4.394c.01-.158.037-.316.055-.474v-.964z"/></g><g><path fill="#c00e42" d="M18.01 9.624c.002.49-.36.86-.846.866a.854.854 0 0 1-.888-.862c0-.488.399-.884.884-.875.48.009.849.386.85.87zm-.974 3.753c.036 2.085-1.57 3.76-3.65 3.802-2.066.042-3.76-1.569-3.803-3.618-.043-2.051 1.595-3.725 3.69-3.769 1.975-.041 3.728 1.628 3.763 3.585zm-3.707 6.032c1.024 0 2.049.018 3.072-.003 1.739-.036 2.8-1.122 2.807-2.86.007-2.007.008-4.015 0-6.023-.008-1.77-1.066-2.876-2.838-2.904a205.45 205.45 0 0 0-6.144-.001c-1.748.024-2.785 1.035-2.811 2.746a222.56 222.56 0 0 0 0 6.265c.017 1.324.714 2.28 1.867 2.623.36.107.749.145 1.126.153.973.02 1.948.007 2.921.007z"/></g><g><path fill="#c00e42" d="M15.674 13.478a2.397 2.397 0 0 1-2.38 2.407 2.402 2.402 0 0 1-2.402-2.388 2.4 2.4 0 0 1 2.382-2.405 2.396 2.396 0 0 1 2.4 2.386z"/></g></g></g></g></svg>