<svg xmlns="http://www.w3.org/2000/svg" width="138" height="38" viewBox="0 0 138 38"><defs><linearGradient id="6433a" x1="105.64" x2="105.64" y1="37.98" y2="12.71" gradientUnits="userSpaceOnUse"><stop offset="0" stop-color="#001852"/><stop offset=".74" stop-color="#c30d41"/></linearGradient><linearGradient id="6433b" x1="11.48" x2="11.48" y1="28.12" y2=".54" gradientUnits="userSpaceOnUse"><stop offset="0" stop-color="#001a65"/><stop offset=".79" stop-color="#c30d41"/></linearGradient><linearGradient id="6433c" x1="11.35" x2="11.35" y1="38.08" y2="21.74" gradientUnits="userSpaceOnUse"><stop offset="0" stop-color="#001a65"/><stop offset=".79" stop-color="#c30d41"/></linearGradient></defs><g><g><g/><g><path fill="#030504" d="M57.068 37.986V12.73h4.885v25.257z"/></g><g><path fill="#030504" d="M67.16 37.984V23.99c0-6.279 4.918-11.367 10.987-11.367 6.07 0 10.99 5.09 10.99 11.367v13.995h-4.884V23.99c0-3.482-2.738-6.315-6.106-6.315-3.365 0-6.103 2.833-6.103 6.315v13.995z"/></g><g><path fill="url(#6433a)" d="M105.635 17.769c4.043 0 7.33 3.4 7.33 7.581 0 4.18-3.287 7.582-7.33 7.582-4.042 0-7.33-3.401-7.33-7.582 0-4.18 3.288-7.581 7.33-7.581zm12.213 20.215V25.35c0-6.977-5.468-12.633-12.213-12.633-6.744 0-12.214 5.656-12.214 12.633 0 6.977 5.47 12.634 12.214 12.634 2.753 0 5.286-.957 7.33-2.546v2.546z"/></g><g><path fill="#030504" d="M123.09 37.986V.166h4.885v37.82z"/></g><g><path fill="#030504" d="M133.181 37.986V12.73h4.885v25.257z"/></g><g><g><path fill="url(#6433b)" d="M18.481 8.255zm0 0c-.372 1.83-1.326 4.102-3.611 6.106-2.92 2.56-5.235 3.814-7.277 4.92-1.092.593-2.15 1.166-3.2 1.875-.173-.887-.222-1.94.077-3.006.538-1.916 2.112-3.552 4.68-4.86 4.373-2.23 7.354-3.88 9.331-5.035zM4.883 26.32c1.443-1.382 2.873-2.157 4.685-3.139 2.127-1.153 4.774-2.587 8.054-5.462 6.694-5.871 5.203-13.552 5.137-13.876L22.072.544l-2.648 1.978c-.026.02-2.724 2.01-12.155 6.82-3.71 1.89-6.033 4.463-6.904 7.644-1.268 4.637 1.166 8.72 1.27 8.892l1.366 2.246z"/></g></g><g><g><path fill="url(#6433c)" d="M7.644 38.083l-1.399-2.462c-.133-.236-1.287-2.372-.614-4.806.305-1.104 1.108-2.658 3.203-3.792 3.522-1.909 5.073-3.029 5.088-3.04l3.081-2.239.268 3.883c.12 1.774-.41 5.284-3.168 7.19-.725.502-1.348.904-1.903 1.261-1.122.724-1.863 1.201-2.61 1.98z"/></g></g><g><path fill="#030504" d="M44.68 5.28h9.78V.23h-9.78V.228c-6.07 0-10.989 5.087-10.989 11.366v26.41h4.885V23.059h11.647V18.01H38.576v-6.416c0-3.482 2.738-6.314 6.103-6.314z"/></g><g/></g></g></svg>