<svg xmlns="http://www.w3.org/2000/svg" width="37.493" height="44.867" viewBox="0 0 37.493 44.867"><g transform="translate(0.497 0.5)"><path d="M254.037,45c.414.307.812.641,1.246.916A32.681,32.681,0,0,0,266.5,50.787c1.681.327,3.405.434,5.111.634a6.083,6.083,0,0,0,.665,0v.388c0,6.159.012,12.317-.013,18.476a11.639,11.639,0,0,1-1.453,5.35A26.953,26.953,0,0,1,257.6,88.069a8.7,8.7,0,0,1-7.306-.015,26.934,26.934,0,0,1-9.562-7.134,19.366,19.366,0,0,1-4.45-7.79,13.186,13.186,0,0,1-.469-3.257c-.045-6.012-.022-12.025-.021-18.037,0-.112.011-.224.018-.374l1.6-.094a27.064,27.064,0,0,0,11.055-3.1c1.763-.923,3.436-2.017,5.148-3.038a1.429,1.429,0,0,0,.236-.227Zm15.9,8.745c-1.294-.212-2.532-.383-3.756-.621a34.147,34.147,0,0,1-11.416-4.784,1.3,1.3,0,0,0-1.617-.007,34.849,34.849,0,0,1-11.363,4.793c-1.2.244-2.42.411-3.652.616-.006.105-.018.217-.018.328q0,7.85,0,15.7a9.722,9.722,0,0,0,.861,4.111A24.43,24.43,0,0,0,251.13,85.853a6.365,6.365,0,0,0,5.679,0,25.437,25.437,0,0,0,11.474-10.325A10.826,10.826,0,0,0,269.945,70q.017-8.02.008-16.04C269.953,53.886,269.941,53.808,269.936,53.745Z" transform="translate(-235.781 -45)" fill="#bc0d40" stroke="rgba(0,0,0,0)" stroke-width="1"/><path d="M356.6,213.147l1.761,1.536-11.286,13.062-6.9-5.905,1.5-1.779,5.153,4.4Z" transform="translate(-329.993 -196.751)" fill="#bc0d40" stroke="rgba(0,0,0,0)" stroke-width="1"/></g></svg>