<svg xmlns="http://www.w3.org/2000/svg" width="45.057" height="50.045" viewBox="0 0 45.057 50.045"><g transform="translate(0.5 0.5)"><path d="M314.46,111.025a14.075,14.075,0,1,0,13.211,18.712c.946.04,1.81.053,2.517.053,4.3,0,14.294-.458,14.294-4.693v-5.726a2.029,2.029,0,0,0,.04-.389,1.781,1.781,0,0,0-.04-.364v-4.653a2.017,2.017,0,0,0,.04-.388,1.813,1.813,0,0,0-.04-.367v-5.179a2,2,0,0,0,.04-.388,1.872,1.872,0,0,0-.115-.631,2.5,2.5,0,0,0,.076-.582v-5.726a2.017,2.017,0,0,0,.04-.388,1.792,1.792,0,0,0-.04-.365V94.775a2.029,2.029,0,0,0,.04-.389,1.907,1.907,0,0,0-.121-.653,1.789,1.789,0,0,0-.755-1.026c-2.92-2.491-12.222-2.576-13.458-2.576s-10.537.085-13.458,2.576a1.79,1.79,0,0,0-.754,1.025,1.836,1.836,0,0,0-.082,1.043v5.179a1.794,1.794,0,0,0-.041.365,1.851,1.851,0,0,0,.041.388v5.726a2.516,2.516,0,0,0,.075.583,1.859,1.859,0,0,0-.115.63,1.834,1.834,0,0,0,.041.388V111.1A13.829,13.829,0,0,0,314.46,111.025Zm28.389,13.958a1.008,1.008,0,0,0,0,.1.343.343,0,0,0,0,.047c-.082,1.577-5.73,2.856-12.661,2.856-.689,0-1.36-.016-2.021-.041a14.166,14.166,0,0,0,.288-2.847q0-.374-.019-.741c.644.019,1.241.026,1.751.026,3.222,0,9.647-.256,12.661-2.171Zm0-5.406a1,1,0,0,0,0,.1.33.33,0,0,0,0,.047c-.082,1.578-5.73,2.856-12.661,2.856-.671,0-1.324-.015-1.968-.039a14.044,14.044,0,0,0-1.481-4.191c1.31.077,2.515.1,3.449.1,3.222,0,9.647-.259,12.661-2.172Zm0-13.26a1.008,1.008,0,0,0,0,.1c0,.014,0,.579,0,.595-.082,1.578-5.73,2.852-12.661,2.852s-12.587-1.273-12.665-2.852c0-.032.007-.611.007-.638a.542.542,0,0,0,0-.06l0-3.3c3.013,1.917,9.441,2.524,12.664,2.524s9.647-.607,12.661-2.522ZM330.188,92.206c7.188,0,11.642,1.342,12.394,2.179-.751.837-5.206,2.181-12.394,2.181s-11.642-1.343-12.393-2.181C318.545,93.549,323,92.206,330.188,92.206Zm0,6.435c1.138,0,9.13-.073,12.661-2.035v3.778a1.019,1.019,0,0,0,0,.1.315.315,0,0,0,0,.046c-.082,1.579-5.73,3.189-12.661,3.189s-12.582-1.612-12.66-3.189c0-.032,0-.063,0-.09a.522.522,0,0,0,0-.059l0-3.779C321.054,98.568,329.05,98.642,330.188,98.642Zm0,13.26c1.138,0,9.13-.073,12.661-2.035v3.779a1,1,0,0,0,0,.1.318.318,0,0,0,0,.047c-.082,1.579-5.73,2.856-12.661,2.856-1.663,0-3.25-.076-4.707-.208a14,14,0,0,0-7.956-5.071v-1.5C321.054,111.829,329.05,111.9,330.188,111.9Zm-3.525,13.2a12.2,12.2,0,1,1-12.2-12.272A12.252,12.252,0,0,1,326.663,125.1Z" transform="translate(-300.464 -90.13)" fill="#bc0d40" stroke="rgba(0,0,0,0)" stroke-width="1"/><path d="M304.384,121.375a9.43,9.43,0,1,0,9.43-9.483A9.468,9.468,0,0,0,304.384,121.375Zm17.666,0a8.235,8.235,0,1,1-8.236-8.281A8.268,8.268,0,0,1,322.05,121.375Z" transform="translate(-299.819 -86.406)" fill="#bc0d40" stroke="rgba(0,0,0,0)" stroke-width="1"/><path d="M311.811,114.971v1.017a3.328,3.328,0,0,0-1.259.832,3.057,3.057,0,0,0-.816,2.1,2.938,2.938,0,0,0,.235,1.178,3.147,3.147,0,0,0,1.089,1.292,6.99,6.99,0,0,0,1.529.789,2.506,2.506,0,0,1,.841.481.429.429,0,0,1,.1.141.356.356,0,0,1,.026.149.305.305,0,0,1-.116.26.945.945,0,0,1-.591.165,2.555,2.555,0,0,1-1.463-.437l-.353-.237a.592.592,0,0,0-.519-.07.6.6,0,0,0-.374.368l-.557,1.565a.6.6,0,0,0,.214.691l.2.148a4.016,4.016,0,0,0,1.21.563c.165.048.333.089.5.122v.891a.6.6,0,0,0,.6.6h1.529a.6.6,0,0,0,.6-.6v-1.056a3.412,3.412,0,0,0,1.387-.954,3.213,3.213,0,0,0,.784-2.108,3.374,3.374,0,0,0-.189-1.148,3.133,3.133,0,0,0-.983-1.371,5.79,5.79,0,0,0-1.5-.862c-.02-.009-.041-.018-.062-.026a3.874,3.874,0,0,1-1.01-.531.3.3,0,0,1-.077-.089.213.213,0,0,1-.008-.078.187.187,0,0,1,.049-.132.737.737,0,0,1,.476-.122,2.428,2.428,0,0,1,.793.125,2.585,2.585,0,0,1,.477.221l.337.193a.591.591,0,0,0,.5.045.6.6,0,0,0,.358-.353l.58-1.54a.6.6,0,0,0-.256-.731l-.241-.143a4.337,4.337,0,0,0-1.328-.507v-.844a.6.6,0,0,0-.6-.6h-1.515A.6.6,0,0,0,311.811,114.971Zm1.2,1.458v-.857h.319v.76a.6.6,0,0,0,.54.6,3.432,3.432,0,0,1,1.18.322l-.154.409a3.274,3.274,0,0,0-.417-.17,3.614,3.614,0,0,0-1.175-.189,1.817,1.817,0,0,0-1.307.463,1.372,1.372,0,0,0-.412.993,1.344,1.344,0,0,0,.122.593,1.442,1.442,0,0,0,.368.477,4.935,4.935,0,0,0,1.377.753h0a4.677,4.677,0,0,1,1.229.69,1.958,1.958,0,0,1,.618.85,2.2,2.2,0,0,1,.118.741,2,2,0,0,1-.488,1.319h0a2.348,2.348,0,0,1-1.225.717.6.6,0,0,0-.456.583v.9h-.334v-.813a.6.6,0,0,0-.545-.6,4.273,4.273,0,0,1-.816-.155,3.142,3.142,0,0,1-.684-.282l.149-.418a3.971,3.971,0,0,0,1.826.465,2.016,2.016,0,0,0,1.37-.446,1.525,1.525,0,0,0,.544-1.177,1.6,1.6,0,0,0-.122-.623,1.633,1.633,0,0,0-.351-.514,3.643,3.643,0,0,0-1.25-.754,5.958,5.958,0,0,1-1.276-.65,1.953,1.953,0,0,1-.687-.8,1.723,1.723,0,0,1-.136-.7,1.86,1.86,0,0,1,.493-1.279,2.255,2.255,0,0,1,1.127-.63A.6.6,0,0,0,313.007,116.429Z" transform="translate(-298.969 -85.982)" fill="#bc0d40" stroke="rgba(0,0,0,0)" stroke-width="1"/></g></svg>