<svg xmlns="http://www.w3.org/2000/svg" width="61" height="71" viewBox="0 0 61 71"><g><g><g><g><path fill="#c30e42" d="M19.789 16.273c0-.043.014-.085.014-.114.47-10.206 7.715-11.302 10.818-11.302h.17c3.843.086 10.377 1.652 10.818 11.302 0 .043 0 .085.014.114.015.1 1.01 9.779-3.515 14.874-1.794 2.022-4.185 3.018-7.33 3.046h-.143c-3.132-.028-5.537-1.024-7.316-3.046-4.513-5.067-3.545-14.789-3.53-14.874zm10.69 21.763H30.933c4.17-.07 7.544-1.537 10.035-4.34 5.48-6.178 4.569-16.768 4.469-17.779-.356-7.587-3.943-11.216-6.903-12.91C36.328 1.74 33.752 1.057 30.877 1h-.242c-1.58 0-4.683.256-7.658 1.95-2.99 1.694-6.633 5.323-6.989 12.967-.1 1.01-1.01 11.6 4.47 17.778 2.476 2.804 5.85 4.27 10.02 4.341z"/><path fill="none" stroke="#f4f4f4" stroke-miterlimit="50" d="M19.789 16.273c0-.043.014-.085.014-.114.47-10.206 7.715-11.302 10.818-11.302h.17c3.843.086 10.377 1.652 10.818 11.302 0 .043 0 .085.014.114.015.1 1.01 9.779-3.515 14.874-1.794 2.022-4.185 3.018-7.33 3.046h-.143c-3.132-.028-5.537-1.024-7.316-3.046-4.513-5.067-3.545-14.789-3.53-14.874zm10.69 21.763H30.933c4.17-.07 7.544-1.537 10.035-4.34 5.48-6.178 4.569-16.768 4.469-17.779-.356-7.587-3.943-11.216-6.903-12.91C36.328 1.74 33.752 1.057 30.877 1h-.242c-1.58 0-4.683.256-7.658 1.95-2.99 1.694-6.633 5.323-6.989 12.967-.1 1.01-1.01 11.6 4.47 17.778 2.476 2.804 5.85 4.27 10.02 4.341z"/></g><g><path fill="#c30e42" d="M59.956 55.601v-.043c0-.113-.014-.227-.014-.356-.085-2.818-.27-9.408-6.448-11.515-.042-.014-.1-.028-.142-.042-6.42-1.637-11.757-5.338-11.814-5.38a1.92 1.92 0 0 0-2.676.469 1.92 1.92 0 0 0 .47 2.676c.242.17 5.907 4.114 12.995 5.935 3.317 1.182 3.687 4.726 3.786 7.971 0 .129 0 .242.015.356.014 1.281-.072 3.26-.3 4.398-2.305 1.31-11.344 5.836-25.094 5.836-13.693 0-22.788-4.54-25.108-5.85-.228-1.138-.328-3.117-.299-4.398 0-.114.014-.228.014-.356.1-3.245.47-6.79 3.786-7.97 7.089-1.823 12.754-5.78 12.996-5.936a1.92 1.92 0 0 0 .47-2.676 1.92 1.92 0 0 0-2.676-.47c-.057.043-5.366 3.743-11.814 5.38-.057.015-.1.029-.143.043-6.177 2.12-6.362 8.711-6.448 11.515 0 .128 0 .242-.014.356v.043c-.014.74-.028 4.54.726 6.448.142.37.399.683.74.896.427.285 10.661 6.804 27.785 6.804 17.123 0 27.357-6.533 27.784-6.804.328-.213.598-.526.74-.896.712-1.893.698-5.694.683-6.434z"/><path fill="none" stroke="#f4f4f4" stroke-miterlimit="50" d="M59.956 55.601v-.043c0-.113-.014-.227-.014-.356-.085-2.818-.27-9.408-6.448-11.515-.042-.014-.1-.028-.142-.042-6.42-1.637-11.757-5.338-11.814-5.38a1.92 1.92 0 0 0-2.676.469 1.92 1.92 0 0 0 .47 2.676c.242.17 5.907 4.114 12.995 5.935 3.317 1.182 3.687 4.726 3.786 7.971 0 .129 0 .242.015.356.014 1.281-.072 3.26-.3 4.398-2.305 1.31-11.344 5.836-25.094 5.836-13.693 0-22.788-4.54-25.108-5.85-.228-1.138-.328-3.117-.299-4.398 0-.114.014-.228.014-.356.1-3.245.47-6.79 3.786-7.97 7.089-1.823 12.754-5.78 12.996-5.936a1.92 1.92 0 0 0 .47-2.676 1.92 1.92 0 0 0-2.676-.47c-.057.043-5.366 3.743-11.814 5.38-.057.015-.1.029-.143.043-6.177 2.12-6.362 8.711-6.448 11.515 0 .128 0 .242-.014.356v.043c-.014.74-.028 4.54.726 6.448.142.37.399.683.74.896.427.285 10.661 6.804 27.785 6.804 17.123 0 27.357-6.533 27.784-6.804.328-.213.598-.526.74-.896.712-1.893.698-5.694.683-6.434z"/></g></g></g></g></svg>