<svg xmlns="http://www.w3.org/2000/svg" width="69" height="28" viewBox="0 0 69 28"><g><g><g><path fill="#bc0d40" d="M39.896 10.272H35.33v2.283h4.565z"/><path fill="none" stroke="#000" stroke-miterlimit="50" d="M39.896 10.272v0H35.33v2.283h4.565v0z"/></g><g><path fill="#bc0d40" d="M2.233 8.978l7.01-1c.157-.023.308-.079.442-.163a36.598 36.598 0 0 1 3.618-1.979l2.96 2.96c.214.214.504.334.807.334h12.554v11.412H20.49a6.855 6.855 0 0 0-7.544-6.813c-.085.008-.165.027-.25.038-.143.021-.286.037-.427.066-.088.018-.17.045-.257.065-.133.033-.267.062-.397.102-.097.03-.171.063-.285.104-.114.041-.245.084-.342.126-.098.04-.18.085-.285.135-.105.05-.22.102-.312.151a3.322 3.322 0 0 0-.271.163c-.098.064-.2.118-.292.178-.091.06-.178.13-.265.196-.086.065-.174.122-.26.196-.088.074-.172.157-.251.228-.079.07-.156.134-.235.214-.079.08-.157.177-.228.248-.071.072-.14.14-.212.229-.073.087-.144.187-.207.271-.063.085-.123.159-.188.252a3.535 3.535 0 0 0-.18.29c-.05.09-.111.174-.165.272-.053.098-.1.204-.148.301-.048.097-.102.19-.142.293-.04.103-.075.21-.114.314-.039.104-.08.206-.114.312-.034.106-.057.216-.087.324-.03.109-.063.224-.086.328-.022.103-.036.218-.054.332-.019.114-.041.228-.053.342-.011.114-.013.237-.02.342-.007.105-.02.21-.02.314l-3.274-1.314a2.043 2.043 0 0 1-1.292-1.907v-4.68h3.424v-2.282H2.233zM9.08 20.544a4.565 4.565 0 1 1 9.13-.003 4.565 4.565 0 0 1-9.13.003zM29.624 6.848H17.542l-1.993-1.993a36.122 36.122 0 0 1 13.43-2.572h.645zm2.283-4.515a36.493 36.493 0 0 1 15.847 4.395l.22.12H31.907zm0 6.798H52.45a24.675 24.675 0 0 1 12.227 3.247 2.92 2.92 0 0 1 1.469 2.53v5.636h-2.283a6.848 6.848 0 1 0-13.695 0H31.907zm20.636 12.326a4.565 4.565 0 1 1 0 0zM.93 6.859c-.562.081-.98.563-.98 1.13v9.245a4.316 4.316 0 0 0 2.727 4.027l3.697 1.484c.135.054.279.081.424.081h.41a6.823 6.823 0 0 0 12.877 0h30.492a6.823 6.823 0 0 0 12.877 0h3.833c.63 0 1.141-.51 1.141-1.141v-6.777a5.21 5.21 0 0 0-2.618-4.512 26.967 26.967 0 0 0-13.05-3.538l-3.913-2.134A38.794 38.794 0 0 0 30.323 0h-1.347a38.434 38.434 0 0 0-15.9 3.424 39.117 39.117 0 0 0-4.394 2.328L.93 6.859z"/><path fill="none" stroke="#000" stroke-miterlimit="50" d="M2.233 8.978l7.01-1c.157-.023.308-.079.442-.163a36.598 36.598 0 0 1 3.618-1.979l2.96 2.96c.214.214.504.334.807.334h12.554v11.412H20.49a6.855 6.855 0 0 0-7.544-6.813c-.085.008-.165.027-.25.038-.143.021-.286.037-.427.066-.088.018-.17.045-.257.065-.133.033-.267.062-.397.102-.097.03-.171.063-.285.104-.114.041-.245.084-.342.126-.098.04-.18.085-.285.135-.105.05-.22.102-.312.151a3.322 3.322 0 0 0-.271.163c-.098.064-.2.118-.292.178-.091.06-.178.13-.265.196-.086.065-.174.122-.26.196-.088.074-.172.157-.251.228-.079.07-.156.134-.235.214-.079.08-.157.177-.228.248-.071.072-.14.14-.212.229-.073.087-.144.187-.207.271-.063.085-.123.159-.188.252a3.535 3.535 0 0 0-.18.29c-.05.09-.111.174-.165.272-.053.098-.1.204-.148.301-.048.097-.102.19-.142.293-.04.103-.075.21-.114.314-.039.104-.08.206-.114.312-.034.106-.057.216-.087.324-.03.109-.063.224-.086.328-.022.103-.036.218-.054.332-.019.114-.041.228-.053.342-.011.114-.013.237-.02.342-.007.105-.02.21-.02.314l-3.274-1.314a2.043 2.043 0 0 1-1.292-1.907v-4.68h3.424v-2.282H2.233zM9.08 20.544a4.565 4.565 0 1 1 9.13-.003 4.565 4.565 0 0 1-9.13.003zM29.624 6.848H17.542l-1.993-1.993a36.122 36.122 0 0 1 13.43-2.572h.645zm2.283-4.515a36.493 36.493 0 0 1 15.847 4.395l.22.12H31.907zm0 6.798H52.45a24.675 24.675 0 0 1 12.227 3.247 2.92 2.92 0 0 1 1.469 2.53v5.636h-2.283a6.848 6.848 0 1 0-13.695 0H31.907zm20.636 12.326a4.565 4.565 0 1 1 0 0zM.93 6.859c-.562.081-.98.563-.98 1.13v9.245a4.316 4.316 0 0 0 2.727 4.027l3.697 1.484c.135.054.279.081.424.081h.41a6.823 6.823 0 0 0 12.877 0h30.492a6.823 6.823 0 0 0 12.877 0h3.833c.63 0 1.141-.51 1.141-1.141v-6.777a5.21 5.21 0 0 0-2.618-4.512 26.967 26.967 0 0 0-13.05-3.538l-3.913-2.134A38.794 38.794 0 0 0 30.323 0h-1.347a38.434 38.434 0 0 0-15.9 3.424 39.117 39.117 0 0 0-4.394 2.328L.93 6.859z"/></g></g></g></svg>