<svg xmlns="http://www.w3.org/2000/svg" width="69.478" height="28.414" viewBox="0 0 69.478 28.414"><g transform="translate(0.5 0.5)"><path d="M244.565,86.891H240v2.283h4.565Zm0,0" transform="translate(-204.619 -76.619)" fill="#bc0d40" stroke="rgba(0,0,0,0)" stroke-width="1"/><path d="M.979,7.351,8.732,6.244a39.116,39.116,0,0,1,4.393-2.328A38.434,38.434,0,0,1,29.026.492h1.347A38.8,38.8,0,0,1,48.9,5.216L52.809,7.35a26.967,26.967,0,0,1,13.05,3.538A5.21,5.21,0,0,1,68.478,15.4v6.777a1.141,1.141,0,0,1-1.141,1.141H63.5a6.823,6.823,0,0,1-12.877,0H20.135a6.823,6.823,0,0,1-12.877,0h-.41a1.146,1.146,0,0,1-.424-.081l-3.7-1.483A4.316,4.316,0,0,1,0,17.726V8.481A1.142,1.142,0,0,1,.979,7.351Zm51.613,14.6a4.566,4.566,0,1,0-.092-.913A4.565,4.565,0,0,0,52.592,21.949Zm-20.636-.913H50.218a6.848,6.848,0,1,1,13.7,0H66.2V15.4a2.919,2.919,0,0,0-1.469-2.53A24.675,24.675,0,0,0,52.5,9.623H31.957Zm0-13.7H48.024l-.22-.12a36.493,36.493,0,0,0-15.847-4.4ZM29.674,2.775h-.646A36.122,36.122,0,0,0,15.6,5.347L17.592,7.34H29.674ZM9.223,21.949a4.566,4.566,0,1,0-.092-.913A4.565,4.565,0,0,0,9.223,21.949ZM2.283,10.764H5.707v2.283H2.283v4.679a2.043,2.043,0,0,0,1.292,1.907l3.274,1.315c0-.1.013-.209.02-.314s.009-.228.02-.342.034-.228.052-.342.032-.228.055-.332.056-.219.086-.328.052-.218.087-.324.075-.208.114-.312.074-.211.114-.314.094-.2.142-.293.095-.2.148-.3.114-.182.166-.273.114-.2.179-.289.126-.168.189-.252.134-.184.207-.272.141-.157.212-.228.15-.169.228-.248.156-.143.235-.214.163-.154.25-.228.175-.131.261-.2.174-.135.265-.2.194-.114.292-.178.178-.114.271-.163.208-.1.313-.151.187-.095.284-.136.228-.085.342-.125.189-.073.286-.1c.13-.04.263-.069.4-.1.087-.02.17-.048.258-.066.14-.029.284-.045.427-.065.085-.011.165-.03.25-.038a6.956,6.956,0,0,1,.7-.035,6.855,6.855,0,0,1,6.848,6.848h9.134V9.622H17.12a1.139,1.139,0,0,1-.807-.334l-2.96-2.96A36.6,36.6,0,0,0,9.735,8.307a1.145,1.145,0,0,1-.443.162l-7.01,1Zm0,0" transform="translate(0 -0.492)" fill="#bc0d40" stroke="rgba(0,0,0,0)" stroke-width="1"/></g></svg>