<svg xmlns="http://www.w3.org/2000/svg" width="66" height="66" viewBox="0 0 66 66"><g><g><g><g><path fill="#c30e42" d="M44.319 38.82c-3.553 3.62-5.409 8.628-5.409 14.063v1.255H26.824v-1.255c0-5.155-2.137-10.297-5.69-14.196-3.125-3.34-4.407-7.653-3.846-12.113 1.002-6.678 7.212-12.955 15.505-12.955 8.681 0 15.653 6.825 15.653 15.038 0 3.753-1.43 7.372-4.127 10.163zM39.03 60.122c0 1.388-1.135 2.51-2.564 2.51h-6.971c-1.43 0-2.564-1.108-2.564-2.51v-3.206h12.086v3.206zm-6.25-49.294c-9.91 0-17.068 7.385-18.203 15.318-.708 5.289 1.002 10.444 4.554 14.344 3.125 3.338 4.835 7.799 4.835 12.393l-.014 7.239c0 2.924 2.418 5.288 5.41 5.288h6.97c2.992 0 5.41-2.364 5.41-5.288l.013-7.239c0-4.728 1.562-9.055 4.554-12.113 3.272-3.339 4.981-7.652 4.981-12.113-.013-9.896-8.414-17.83-18.51-17.83z"/></g><g><path fill="#c30e42" d="M31.351 6.648V-.03h2.845v6.678z"/></g><g><path fill="#c30e42" d="M50.021 12.845l1.99 1.99 4.875-4.688-2.003-1.99z"/></g><g><path fill="#c30e42" d="M58.529 32.837v-2.791H65.5v2.791z"/></g><g><path fill="#c30e42" d="M.06 32.837v-2.791h6.971v2.791z"/></g><g><path fill="#c30e42" d="M10.624 8.144l-2.003 1.99 4.874 4.687 1.99-1.99z"/></g></g></g></g></svg>