<svg xmlns="http://www.w3.org/2000/svg" width="55.413" height="58.976" viewBox="0 0 55.413 58.976"><g transform="translate(-1987.457 -2475.482)"><path d="M493.8,330.869a21.736,21.736,0,0,1,4.459.769l.369.136c.036.013.075.024.112.034,4.148,1.024,12.546,3.143,24.286,6.132l.083.021.066.016a5.112,5.112,0,0,0,.975.1,4.911,4.911,0,0,0,1.63-.29l.049-.018.138-.053a1.071,1.071,0,0,0,.318-.16l18.5-13.411a4.465,4.465,0,0,0,.978-.722l.046-.046a4.346,4.346,0,0,0-2.652-7.414,3.889,3.889,0,0,0-1.358-.022,3.836,3.836,0,0,0-.558.124,3.967,3.967,0,0,0-.659.27c-.107.055-.224.117-.339.188-.036.022-.073.045-.11.07l-2.031,1.47-11.141,7.222a3.062,3.062,0,0,1-.537.022c-.659-.161-3.031-.782-7.057-1.848l-.178-.047c-.906-.261-1.829-.5-2.718-.718l-2.63-.7a1.943,1.943,0,0,1,.649-3.552h7.1a3.132,3.132,0,1,0,0-6.265h-7.669c-.991-.029-2.229-.043-3.754-.043a13.665,13.665,0,0,0-8.157,2.82c-.49.342-.966.7-1.439,1.046-2.164,1.606-4.033,2.992-6.786,2.992a1.1,1.1,0,0,0-1.087,1.285l-.014,8.625a1.379,1.379,0,0,0,.014.2v.669A1.1,1.1,0,0,0,493.8,330.869Zm1.1-3.109v-6.63c2.884-.323,4.965-1.867,6.983-3.365.454-.337.912-.678,1.385-1.007a11.47,11.47,0,0,1,6.9-2.425c1.5,0,2.72.014,3.721.043h7.7a.929.929,0,1,1,0,1.859h-7.2a1.119,1.119,0,0,0-.178.014,4.146,4.146,0,0,0-1.331,7.729,1.137,1.137,0,0,0,.246.1l2.806.744q1.323.32,2.667.706l.2.053c4.34,1.148,6.7,1.765,7.219,1.887a1.046,1.046,0,0,0,.193.028,4.852,4.852,0,0,0,1.436-.108,1.114,1.114,0,0,0,.334-.145l11.342-7.352.047-.031,2-1.444.027-.018a2.655,2.655,0,0,1,.485-.229,1.558,1.558,0,0,1,.247-.053,1.838,1.838,0,0,1,.649.012.938.938,0,0,0,.128.019,2.144,2.144,0,0,1,1.343,3.672l-.019.021a2.214,2.214,0,0,1-.528.381,1.133,1.133,0,0,0-.146.09l-.781.57-17.652,12.8-.084.033a2.613,2.613,0,0,1-1.4.111l-.055-.013c-11.7-2.977-20.075-5.092-24.249-6.122l-.36-.133a.905.905,0,0,0-.115-.036,31.585,31.585,0,0,0-3.964-.779Z" transform="translate(1495.28 2195.886)" fill="#bc0d40" stroke="rgba(0,0,0,0)" stroke-width="1"/><path d="M511.549,315.323h15.175a3.428,3.428,0,0,0,3.423-3.424v-7.493l.512.513a1.1,1.1,0,0,0,1.558,0l1.358-1.358h0a3.587,3.587,0,0,0,0-5.062l-10.469-10.468c-.025-.03-.051-.059-.078-.087l-1.358-1.358a3.59,3.59,0,0,0-5.069,0l-1.357,1.357c-.025.027-.049.053-.071.079L504.7,298.5a3.585,3.585,0,0,0,0,5.062l1.357,1.358a1.1,1.1,0,0,0,1.559,0l.512-.513V311.9A3.429,3.429,0,0,0,511.549,315.323Zm10.263-3.82h-5.354v-6.881h5.354Zm6.132.4a1.223,1.223,0,0,1-1.22,1.222h-2.837a1.082,1.082,0,0,0,.128-.517v-9.085a1.1,1.1,0,0,0-1.1-1.1h-7.557a1.1,1.1,0,0,0-1.1,1.1V312.6a1.1,1.1,0,0,0,.128.517h-2.835a1.223,1.223,0,0,1-1.223-1.222v-9.7l8.809-8.809,5.625,5.625h0l3.184,3.184Zm-21.11-9.317-.579-.578a1.379,1.379,0,0,1,0-1.947l10.55-10.55c.027-.027.049-.052.074-.079l1.282-1.282a1.417,1.417,0,0,1,1.953,0l1.277,1.275a.99.99,0,0,0,.076.087l10.551,10.55a1.377,1.377,0,0,1,0,1.947l-.578.578-11.523-11.523a1.105,1.105,0,0,0-1.559,0Z" transform="translate(1497.526 2190.442)" fill="#bc0d40" stroke="rgba(0,0,0,0)" stroke-width="1"/></g></svg>