<svg xmlns="http://www.w3.org/2000/svg" width="48.046" height="44.811" viewBox="0 0 48.046 44.811"><g transform="translate(0.5 0.5)"><g transform="translate(0 0)"><path d="M24.868,190.1a1.312,1.312,0,0,0,0,1.861,5.476,5.476,0,0,1,0,7.737L13.662,210.9a5.476,5.476,0,0,1-7.737,0l-1.686-1.686a5.476,5.476,0,0,1,0-7.737l11.206-11.206a1.316,1.316,0,0,0-1.861-1.861L2.378,199.619a8.093,8.093,0,0,0,0,11.46l1.686,1.686a8.116,8.116,0,0,0,11.46,0l11.206-11.206a8.116,8.116,0,0,0,0-11.46A1.311,1.311,0,0,0,24.868,190.1Z" transform="translate(0 -171.321)" fill="#bc0d40" stroke="rgba(0,0,0,0)" stroke-width="1"/><path d="M211.019,20.654l-1.686-1.686a8.116,8.116,0,0,0-11.46,0L186.668,30.174a8.116,8.116,0,0,0,0,11.46,1.316,1.316,0,0,0,1.861-1.861,5.475,5.475,0,0,1,0-7.737l11.206-11.206a5.476,5.476,0,0,1,7.737,0l1.686,1.686a5.476,5.476,0,0,1,0,7.737L197.952,41.458a1.32,1.32,0,0,0,.926,2.251,1.284,1.284,0,0,0,.926-.39L211.01,32.113a8.1,8.1,0,0,0,.01-11.46Z" transform="translate(-166.341 -16.6)" fill="#bc0d40" stroke="rgba(0,0,0,0)" stroke-width="1"/></g></g></svg>