<svg xmlns="http://www.w3.org/2000/svg" width="48" height="44" viewBox="0 0 48 44"><g><g><g><g><path fill="#bc0d40" d="M25 18.832a1.312 1.312 0 0 0 0 1.861 5.476 5.476 0 0 1 0 7.737L13.794 39.637a5.476 5.476 0 0 1-7.737 0L4.371 37.95a5.476 5.476 0 0 1 0-7.737l11.206-11.207a1.312 1.312 0 0 0 0-1.86 1.312 1.312 0 0 0-1.86 0L2.51 28.351a8.058 8.058 0 0 0-2.378 5.73c0 2.163.838 4.2 2.378 5.73l1.686 1.686a8.078 8.078 0 0 0 5.73 2.368c2.075 0 4.15-.79 5.73-2.368L26.86 30.292c3.158-3.158 3.158-8.303 0-11.46a1.311 1.311 0 0 0-1.86 0z"/><path fill="none" stroke="#000" stroke-miterlimit="50" d="M25 18.832a1.312 1.312 0 0 0 0 1.861 5.476 5.476 0 0 1 0 7.737L13.794 39.637a5.476 5.476 0 0 1-7.737 0L4.371 37.95a5.476 5.476 0 0 1 0-7.737l11.206-11.207a1.312 1.312 0 0 0 0-1.86 1.312 1.312 0 0 0-1.86 0L2.51 28.351a8.058 8.058 0 0 0-2.378 5.73c0 2.163.838 4.2 2.378 5.73l1.686 1.686a8.078 8.078 0 0 0 5.73 2.368c2.075 0 4.15-.79 5.73-2.368L26.86 30.292c3.158-3.158 3.158-8.303 0-11.46a1.311 1.311 0 0 0-1.86 0z"/></g><g><path fill="#bc0d40" d="M44.81 4.108l-1.685-1.686c-3.157-3.157-8.302-3.157-11.46 0L20.46 13.628c-3.157 3.158-3.157 8.303 0 11.46a1.312 1.312 0 0 0 1.862 0 1.312 1.312 0 0 0 0-1.861 5.475 5.475 0 0 1 0-7.737L33.527 4.284a5.476 5.476 0 0 1 7.737 0l1.686 1.685a5.475 5.475 0 0 1 0 7.737L31.743 24.913a1.312 1.312 0 0 0 0 1.86c.254.254.595.39.926.39.331 0 .672-.126.926-.39L44.8 15.569a8.057 8.057 0 0 0 2.378-5.73c0-2.163-.838-4.2-2.368-5.73z"/><path fill="none" stroke="#000" stroke-miterlimit="50" d="M44.81 4.108v0l-1.685-1.686c-3.157-3.157-8.302-3.157-11.46 0L20.46 13.628c-3.157 3.158-3.157 8.303 0 11.46a1.312 1.312 0 0 0 1.862 0 1.312 1.312 0 0 0 0-1.861 5.475 5.475 0 0 1 0-7.737L33.527 4.284a5.476 5.476 0 0 1 7.737 0l1.686 1.685a5.475 5.475 0 0 1 0 7.737L31.743 24.913a1.312 1.312 0 0 0 0 1.86c.254.254.595.39.926.39.331 0 .672-.126.926-.39L44.8 15.569a8.057 8.057 0 0 0 2.378-5.73c0-2.163-.838-4.2-2.368-5.73z"/></g></g></g></g></svg>