<svg xmlns="http://www.w3.org/2000/svg" width="37" height="44" viewBox="0 0 37 44"><g><g><g><path fill="#bc0d40" d="M34.101 8.745c.005.063.018.141.017.22 0 5.346.004 10.693-.007 16.04-.005 2.002-.66 3.832-1.663 5.526-2.74 4.636-6.589 8.062-11.474 10.325-1.893.877-3.792.903-5.68-.003C9.877 38.252 5.675 34.4 3.137 28.88c-.594-1.293-.862-2.678-.86-4.112.005-5.233.001-10.466.002-15.699 0-.111.012-.222.018-.328 1.232-.205 2.45-.372 3.652-.616 4.107-.834 7.828-2.608 11.363-4.792.61-.377 1.004-.373 1.618.007 3.55 2.192 7.282 3.981 11.416 4.783 1.224.238 2.462.41 3.756.622zM18.202 0h-.195c-.078.076-.144.172-.236.227-1.71 1.02-3.385 2.114-5.147 3.038-3.457 1.81-7.145 2.872-11.056 3.104l-1.598.094c-.007.15-.018.262-.018.374 0 6.012-.023 12.025.022 18.037.008 1.088.188 2.202.469 3.256.793 2.978 2.434 5.503 4.45 7.79 2.684 3.045 5.803 5.513 9.561 7.134 2.445 1.055 4.88 1.104 7.306.015 5.836-2.617 10.255-6.762 13.215-12.432.87-1.666 1.445-3.45 1.453-5.35.024-6.158.011-12.317.013-18.475v-.388c-.252 0-.461.02-.666-.003-1.705-.2-3.43-.307-5.11-.634-4.087-.795-7.733-2.66-11.217-4.87-.434-.276-.831-.61-1.246-.917z"/><path fill="none" stroke="#000" stroke-miterlimit="50" d="M34.101 8.745c.005.063.018.141.017.22 0 5.346.004 10.693-.007 16.04-.005 2.002-.66 3.832-1.663 5.526-2.74 4.636-6.589 8.062-11.474 10.325-1.893.877-3.792.903-5.68-.003C9.877 38.252 5.675 34.4 3.137 28.88c-.594-1.293-.862-2.678-.86-4.112.005-5.233.001-10.466.002-15.699 0-.111.012-.222.018-.328 1.232-.205 2.45-.372 3.652-.616 4.107-.834 7.828-2.608 11.363-4.792.61-.377 1.004-.373 1.618.007 3.55 2.192 7.282 3.981 11.416 4.783 1.224.238 2.462.41 3.756.622zM18.202 0h-.195c-.078.076-.144.172-.236.227-1.71 1.02-3.385 2.114-5.147 3.038-3.457 1.81-7.145 2.872-11.056 3.104l-1.598.094c-.007.15-.018.262-.018.374 0 6.012-.023 12.025.022 18.037.008 1.088.188 2.202.469 3.256.793 2.978 2.434 5.503 4.45 7.79 2.684 3.045 5.803 5.513 9.561 7.134 2.445 1.055 4.88 1.104 7.306.015 5.836-2.617 10.255-6.762 13.215-12.432.87-1.666 1.445-3.45 1.453-5.35.024-6.158.011-12.317.013-18.475v-.388c-.252 0-.461.02-.666-.003-1.705-.2-3.43-.307-5.11-.634-4.087-.795-7.733-2.66-11.217-4.87-.434-.276-.831-.61-1.246-.917z"/></g><g><path fill="#bc0d40" d="M26.552 16.396l1.761 1.536-11.286 13.062-6.901-5.905 1.499-1.78 5.153 4.4 9.774-11.313z"/><path fill="none" stroke="#000" stroke-miterlimit="50" d="M26.552 16.396l1.761 1.536-11.286 13.062-6.901-5.905 1.499-1.78 5.153 4.4 9.774-11.313z"/></g></g></g></svg>