<svg xmlns="http://www.w3.org/2000/svg" width="51" height="46" viewBox="0 0 51 46"><g><g><path fill="#bc0d40" d="M48.92 28.86c0 .42-.309.777-.725.836l-.233.032-19.272 2.658V31.17a2.529 2.529 0 0 0-2.529-2.528h-1.686a2.529 2.529 0 0 0-2.528 2.528v1.216l-19.505-2.69a.843.843 0 0 1-.726-.835V10.097c0-.465.378-.843.843-.843h45.518c.466 0 .843.378.843.843zm-21.916 7.368a.843.843 0 0 1-.843.843h-1.686a.843.843 0 0 1-.843-.843V31.17c0-.465.378-.843.843-.843h1.686c.466 0 .843.378.843.843zm20.23 6.743a.843.843 0 0 1-.843.843H4.245a.843.843 0 0 1-.843-.843v-11.44l18.545 2.557v2.14a2.529 2.529 0 0 0 2.528 2.529h1.686a2.529 2.529 0 0 0 2.529-2.53v-2.14l18.544-2.557zM32.062 7.57H18.575v-2.53h13.487zM15.203 4.197a2.529 2.529 0 0 1 2.529-2.529h15.173a2.529 2.529 0 0 1 2.528 2.529v3.371h-1.686V4.197a.843.843 0 0 0-.842-.843H17.732a.843.843 0 0 0-.843.843v3.371h-1.686zm32.874 3.372H37.12V4.197a4.22 4.22 0 0 0-4.214-4.215H17.732a4.22 4.22 0 0 0-4.215 4.215v3.371H2.56a2.529 2.529 0 0 0-2.528 2.53V28.86a2.54 2.54 0 0 0 1.685 2.38v11.73a2.529 2.529 0 0 0 2.53 2.53H46.39a2.529 2.529 0 0 0 2.53-2.53v-11.73a2.54 2.54 0 0 0 1.685-2.38V10.097a2.529 2.529 0 0 0-2.529-2.528z"/><path fill="none" stroke="#000" stroke-miterlimit="50" d="M48.92 28.86c0 .42-.309.777-.725.836l-.233.032-19.272 2.658V31.17a2.529 2.529 0 0 0-2.529-2.528h-1.686a2.529 2.529 0 0 0-2.528 2.528v1.216l-19.505-2.69a.843.843 0 0 1-.726-.835V10.097c0-.465.378-.843.843-.843h45.518c.466 0 .843.378.843.843zm-21.916 7.368a.843.843 0 0 1-.843.843h-1.686a.843.843 0 0 1-.843-.843V31.17c0-.465.378-.843.843-.843h1.686c.466 0 .843.378.843.843zm20.23 6.743a.843.843 0 0 1-.843.843H4.245a.843.843 0 0 1-.843-.843v-11.44l18.545 2.557v2.14a2.529 2.529 0 0 0 2.528 2.529h1.686a2.529 2.529 0 0 0 2.529-2.53v-2.14l18.544-2.557zM32.062 7.57H18.575v-2.53h13.487zM15.203 4.197a2.529 2.529 0 0 1 2.529-2.529h15.173a2.529 2.529 0 0 1 2.528 2.529v3.371h-1.686V4.197a.843.843 0 0 0-.842-.843H17.732a.843.843 0 0 0-.843.843v3.371h-1.686zm32.874 3.372H37.12V4.197a4.22 4.22 0 0 0-4.214-4.215H17.732a4.22 4.22 0 0 0-4.215 4.215v3.371H2.56a2.529 2.529 0 0 0-2.528 2.53V28.86a2.54 2.54 0 0 0 1.685 2.38v11.73a2.529 2.529 0 0 0 2.53 2.53H46.39a2.529 2.529 0 0 0 2.53-2.53v-11.73a2.54 2.54 0 0 0 1.685-2.38V10.097a2.529 2.529 0 0 0-2.529-2.528z"/></g></g></svg>