<svg xmlns="http://www.w3.org/2000/svg" width="55" height="58" viewBox="0 0 55 58"><g><g><g><path fill="#bc0d40" d="M2.178 47.646v-6.63c2.884-.323 4.964-1.867 6.982-3.365.454-.337.912-.678 1.386-1.007 1.804-1.259 3.89-2.425 6.897-2.425 1.503 0 2.72.015 3.721.044h7.702a.93.93 0 0 1 0 1.86h-7.2c-.06 0-.119.004-.179.014A4.142 4.142 0 0 0 18 40.238c0 1.506.827 2.895 2.156 3.629.078.042.16.076.246.098.228.062 1.33.355 2.805.745.882.213 1.772.448 2.668.706l.2.053c4.34 1.148 6.7 1.765 7.22 1.887.063.015.127.024.192.027.553.03 1.023-.006 1.436-.108.12-.03.232-.078.334-.145L46.6 39.778l.046-.032 1.996-1.444.026-.018c.06-.039.123-.071.187-.102.121-.063.214-.102.298-.127.081-.025.163-.04.247-.053.214-.034.44-.031.65.012.042.01.085.016.128.02a2.152 2.152 0 0 1 1.989 2.149c0 .57-.23 1.112-.646 1.522l-.02.02a2.214 2.214 0 0 1-.527.382c-.05.026-.1.056-.146.09l-.78.57-17.652 12.795c-.028.011-.056.02-.085.033a2.613 2.613 0 0 1-1.404.11l-.056-.013C19.156 52.715 10.776 50.6 6.603 49.57l-.36-.133a.905.905 0 0 0-.115-.036c-1.607-.402-2.934-.664-3.964-.78zm-1.102 3.11c.892 0 2.473.272 4.46.768l.368.136c.036.013.075.024.112.034 4.148 1.024 12.546 3.143 24.286 6.132l.083.02.066.016c.328.064.656.096.975.096.535 0 1.067-.095 1.63-.29l.05-.018.137-.053a1.07 1.07 0 0 0 .318-.16l18.498-13.411c.351-.19.677-.432.978-.722l.046-.046a4.314 4.314 0 0 0 1.287-3.075 4.345 4.345 0 0 0-3.938-4.339 3.889 3.889 0 0 0-1.358-.021 3.836 3.836 0 0 0-1.217.394 4.903 4.903 0 0 0-.448.257l-2.031 1.47-11.141 7.223c-.15.022-.328.027-.538.021-.659-.161-3.03-.782-7.057-1.848l-.178-.047a62.377 62.377 0 0 0-2.718-.718c-1.246-.33-2.234-.594-2.63-.699a1.943 1.943 0 0 1 .65-3.551h7.1a3.136 3.136 0 0 0 3.133-3.131 3.137 3.137 0 0 0-3.133-3.134h-7.67c-.99-.029-2.228-.043-3.753-.043-3.625 0-6.159 1.426-8.157 2.82-.49.342-.967.695-1.439 1.046-2.164 1.606-4.033 2.992-6.786 2.992A1.104 1.104 0 0 0-.026 40.16l-.014 8.626c0 .067.005.134.014.2v.668c0 .607.494 1.101 1.102 1.101z"/><path fill="none" stroke="#000" stroke-miterlimit="50" d="M2.178 47.646v-6.63c2.884-.323 4.964-1.867 6.982-3.365.454-.337.912-.678 1.386-1.007 1.804-1.259 3.89-2.425 6.897-2.425 1.503 0 2.72.015 3.721.044h7.702a.93.93 0 0 1 0 1.86h-7.2c-.06 0-.119.004-.179.014A4.142 4.142 0 0 0 18 40.238c0 1.506.827 2.895 2.156 3.629.078.042.16.076.246.098.228.062 1.33.355 2.805.745.882.213 1.772.448 2.668.706l.2.053c4.34 1.148 6.7 1.765 7.22 1.887.063.015.127.024.192.027.553.03 1.023-.006 1.436-.108.12-.03.232-.078.334-.145L46.6 39.778l.046-.032 1.996-1.444.026-.018c.06-.039.123-.071.187-.102.121-.063.214-.102.298-.127.081-.025.163-.04.247-.053.214-.034.44-.031.65.012.042.01.085.016.128.02a2.152 2.152 0 0 1 1.989 2.149c0 .57-.23 1.112-.646 1.522l-.02.02a2.214 2.214 0 0 1-.527.382c-.05.026-.1.056-.146.09l-.78.57-17.652 12.795c-.028.011-.056.02-.085.033a2.613 2.613 0 0 1-1.404.11l-.056-.013C19.156 52.715 10.776 50.6 6.603 49.57l-.36-.133a.905.905 0 0 0-.115-.036c-1.607-.402-2.934-.664-3.964-.78zm-1.102 3.11c.892 0 2.473.272 4.46.768l.368.136c.036.013.075.024.112.034 4.148 1.024 12.546 3.143 24.286 6.132l.083.02.066.016c.328.064.656.096.975.096.535 0 1.067-.095 1.63-.29l.05-.018.137-.053a1.07 1.07 0 0 0 .318-.16l18.498-13.411c.351-.19.677-.432.978-.722l.046-.046a4.314 4.314 0 0 0 1.287-3.075 4.345 4.345 0 0 0-3.938-4.339 3.889 3.889 0 0 0-1.358-.021 3.836 3.836 0 0 0-1.217.394 4.903 4.903 0 0 0-.448.257l-2.031 1.47-11.141 7.223c-.15.022-.328.027-.538.021-.659-.161-3.03-.782-7.057-1.848l-.178-.047a62.377 62.377 0 0 0-2.718-.718c-1.246-.33-2.234-.594-2.63-.699a1.943 1.943 0 0 1 .65-3.551h7.1a3.136 3.136 0 0 0 3.133-3.131 3.137 3.137 0 0 0-3.133-3.134h-7.67c-.99-.029-2.228-.043-3.753-.043-3.625 0-6.159 1.426-8.157 2.82-.49.342-.967.695-1.439 1.046-2.164 1.606-4.033 2.992-6.786 2.992A1.104 1.104 0 0 0-.026 40.16l-.014 8.626c0 .067.005.134.014.2v.668c0 .607.494 1.101 1.102 1.101z"/></g><g><path fill="#bc0d40" d="M16.36 17.024l-.58-.578a1.38 1.38 0 0 1 0-1.947L26.33 3.95a1.53 1.53 0 0 0 .073-.08l1.282-1.281c.52-.52 1.433-.52 1.953 0l1.277 1.275c.023.03.05.059.076.086L41.542 14.5c.537.536.537 1.41 0 1.947l-.578.578L29.44 5.501a1.106 1.106 0 0 0-1.558 0zm21.11 9.318c0 .673-.548 1.221-1.22 1.221h-2.838c.084-.154.128-.33.128-.517v-9.084a1.1 1.1 0 0 0-1.1-1.102h-7.557a1.1 1.1 0 0 0-1.101 1.102v9.084c0 .187.046.363.128.517h-2.835a1.223 1.223 0 0 1-1.223-1.221v-9.696l8.81-8.809 5.624 5.625 3.184 3.184zm-6.132-.397h-5.354v-6.881h5.354zm-10.263 3.82H36.25a3.428 3.428 0 0 0 3.422-3.423v-7.494l.512.513c.432.43 1.128.43 1.558 0l1.358-1.357a3.587 3.587 0 0 0 0-5.063L32.633 2.474c-.025-.03-.05-.06-.078-.087l-1.358-1.358A3.568 3.568 0 0 0 28.66-.018c-.958 0-1.858.372-2.535 1.048L24.77 2.387c-.025.026-.05.053-.071.08L14.222 12.94a3.585 3.585 0 0 0 0 5.063l1.357 1.357a1.102 1.102 0 0 0 1.559 0l.512-.513v7.494a3.429 3.429 0 0 0 3.425 3.423z"/><path fill="none" stroke="#000" stroke-miterlimit="50" d="M16.36 17.024l-.58-.578a1.38 1.38 0 0 1 0-1.947L26.33 3.95a1.53 1.53 0 0 0 .073-.08l1.282-1.281c.52-.52 1.433-.52 1.953 0l1.277 1.275c.023.03.05.059.076.086L41.542 14.5c.537.536.537 1.41 0 1.947l-.578.578L29.44 5.501a1.106 1.106 0 0 0-1.558 0zm21.11 9.318c0 .673-.548 1.221-1.22 1.221h-2.838c.084-.154.128-.33.128-.517v-9.084a1.1 1.1 0 0 0-1.1-1.102h-7.557a1.1 1.1 0 0 0-1.101 1.102v9.084c0 .187.046.363.128.517h-2.835a1.223 1.223 0 0 1-1.223-1.221v-9.696l8.81-8.809 5.624 5.625 3.184 3.184zm-6.132-.397h-5.354v-6.881h5.354zm-10.263 3.82H36.25a3.428 3.428 0 0 0 3.422-3.423v-7.494l.512.513c.432.43 1.128.43 1.558 0l1.358-1.357h0a3.587 3.587 0 0 0 0-5.063L32.633 2.474c-.025-.03-.05-.06-.078-.087l-1.358-1.358A3.568 3.568 0 0 0 28.66-.018c-.958 0-1.858.372-2.535 1.048L24.77 2.387c-.025.026-.05.053-.071.08L14.222 12.94a3.585 3.585 0 0 0 0 5.063l1.357 1.357a1.102 1.102 0 0 0 1.559 0l.512-.513v7.494a3.429 3.429 0 0 0 3.425 3.423z"/></g></g></g></svg>