<svg xmlns="http://www.w3.org/2000/svg" width="63" height="54" viewBox="0 0 63 54"><g><g><g><g><path fill="#c30e42" d="M54.043 2.534c3.412 0 6.188 2.791 6.188 6.222v25.085c0 3.431-2.776 6.223-6.188 6.223H50.45a1.28 1.28 0 0 0-1.276 1.283v8.345L38.17 40.366a1.273 1.273 0 0 0-.822-.302H8.65c-3.412 0-6.188-2.792-6.188-6.223V8.756c0-3.43 2.776-6.222 6.188-6.222zM50.45 53.735a1.283 1.283 0 0 0 1.276-1.283V42.63h2.318c4.82 0 8.74-3.943 8.74-8.789V8.756c0-4.846-3.92-8.788-8.74-8.788H8.65C3.83-.032-.09 3.91-.09 8.756v25.085c0 4.846 3.92 8.789 8.74 8.789h28.233l12.743 10.803c.235.2.527.302.823.302z"/></g></g><g><g><g><path fill="#c30e42" d="M51.898 14.337H10.795a1.28 1.28 0 0 1-1.276-1.283 1.28 1.28 0 0 1 1.276-1.283h41.103a1.28 1.28 0 0 1 1.276 1.283 1.28 1.28 0 0 1-1.276 1.283z"/></g></g><g><g><path fill="#c30e42" d="M51.898 22.553H10.795a1.28 1.28 0 0 1-1.276-1.283 1.28 1.28 0 0 1 1.276-1.283h41.103a1.28 1.28 0 0 1 1.276 1.283 1.28 1.28 0 0 1-1.276 1.283z"/></g></g><g><g><path fill="#c30e42" d="M51.898 30.77H10.795a1.28 1.28 0 0 1-1.276-1.283 1.28 1.28 0 0 1 1.276-1.283h41.103a1.28 1.28 0 0 1 1.276 1.283 1.28 1.28 0 0 1-1.276 1.283z"/></g></g></g></g></g></svg>