<svg xmlns="http://www.w3.org/2000/svg" width="51.575" height="46.518" viewBox="0 0 51.575 46.518"><path d="M48.047,7.586H37.089V4.215A4.22,4.22,0,0,0,32.874,0H17.7a4.22,4.22,0,0,0-4.215,4.215V7.586H2.529A2.529,2.529,0,0,0,0,10.115V28.878a2.54,2.54,0,0,0,1.686,2.38V42.989a2.529,2.529,0,0,0,2.529,2.529H46.361a2.529,2.529,0,0,0,2.529-2.529V31.259a2.541,2.541,0,0,0,1.686-2.381V10.115A2.529,2.529,0,0,0,48.047,7.586ZM15.173,4.215A2.529,2.529,0,0,1,17.7,1.686H32.874A2.529,2.529,0,0,1,35.4,4.215V7.586H33.717V4.215a.843.843,0,0,0-.843-.843H17.7a.843.843,0,0,0-.843.843V7.586H15.173ZM32.031,7.586H18.544V5.058H32.031ZM47.2,42.989a.843.843,0,0,1-.843.843H4.215a.843.843,0,0,1-.843-.843V31.548l18.544,2.558v2.14a2.529,2.529,0,0,0,2.529,2.529h1.686a2.529,2.529,0,0,0,2.529-2.529v-2.14L47.2,31.548Zm-20.23-6.743a.843.843,0,0,1-.843.843H24.445a.843.843,0,0,1-.843-.843V31.188a.843.843,0,0,1,.843-.843h1.686a.843.843,0,0,1,.843.843ZM48.89,28.878a.843.843,0,0,1-.725.836l-.234.032L28.659,32.4V31.188a2.529,2.529,0,0,0-2.529-2.529H24.445a2.529,2.529,0,0,0-2.529,2.529V32.4l-19.5-2.69a.843.843,0,0,1-.726-.836V10.115a.843.843,0,0,1,.843-.843H48.047a.843.843,0,0,1,.843.843Zm0,0" transform="translate(0.5 0.5)" fill="#bc0d40" stroke="rgba(0,0,0,0)" stroke-width="1"/></svg>