<svg xmlns="http://www.w3.org/2000/svg" width="55" height="55" viewBox="0 0 55 55"><g><g><g><g><g><path fill="#c30e42" d="M27.205 51.301c-13.287 0-24.096-10.81-24.096-24.096 0-13.287 10.81-24.096 24.096-24.096 13.287 0 24.096 10.81 24.096 24.096 0 13.287-10.81 24.096-24.096 24.096zm19.3-43.397C41.35 2.75 34.495-.09 27.205-.09c-7.29 0-14.145 2.84-19.3 7.994C2.748 13.06-.09 19.914-.09 27.204c0 7.292 2.839 14.146 7.994 19.301 5.156 5.156 12.01 7.995 19.301 7.995 7.29 0 14.145-2.84 19.3-7.995 5.156-5.155 7.995-12.01 7.995-19.3 0-7.29-2.84-14.145-7.995-19.3z"/></g></g></g><g><g><g><path fill="#c30e42" d="M40.245 18.447a1.6 1.6 0 0 0-2.261 0L23.86 32.57l-7.435-7.434a1.6 1.6 0 0 0-2.261 2.261l8.565 8.566a1.594 1.594 0 0 0 2.262 0l15.253-15.254a1.6 1.6 0 0 0 0-2.262z"/></g></g></g></g></g></svg>