<svg xmlns="http://www.w3.org/2000/svg" width="45" height="50" viewBox="0 0 45 50"><g><g><g><path fill="#bc0d40" d="M26.692 35.425c0 6.766-5.475 12.271-12.202 12.271-6.73 0-12.203-5.505-12.203-12.27 0-6.768 5.474-12.273 12.203-12.273 6.727 0 12.202 5.505 12.202 12.272zm3.525-13.198c1.138 0 9.13-.073 12.662-2.036v3.78a.997.997 0 0 0 0 .147c-.082 1.579-5.73 2.856-12.662 2.856-1.663 0-3.25-.076-4.707-.208a13.997 13.997 0 0 0-7.956-5.071l-.002-1.505c3.531 1.964 11.527 2.037 12.665 2.037zm0-13.26c1.138 0 9.13-.073 12.662-2.035v3.778a1.02 1.02 0 0 0 0 .148c-.082 1.58-5.73 3.19-12.662 3.19s-12.582-1.612-12.66-3.19c.002-.031.002-.063.002-.09a.522.522 0 0 0-.003-.058l-.004-3.78c3.531 1.963 11.527 2.037 12.665 2.037zm0-6.435c7.188 0 11.643 1.342 12.394 2.18-.751.837-5.206 2.18-12.394 2.18-7.187 0-11.642-1.343-12.393-2.18.751-.838 5.206-2.18 12.393-2.18zm12.662 14.11a1.008 1.008 0 0 0-.004.103c0 .014.001.578.004.594-.082 1.578-5.73 2.852-12.662 2.852s-12.586-1.273-12.665-2.852c.003-.031.007-.61.007-.638a.542.542 0 0 0-.003-.06l-.002-3.296c3.012 1.917 9.44 2.524 12.663 2.524 3.223 0 9.648-.607 12.662-2.522zm0 13.26a.996.996 0 0 0 0 .149c-.082 1.577-5.73 2.856-12.662 2.856-.67 0-1.324-.015-1.968-.038a14.044 14.044 0 0 0-1.481-4.192c1.31.078 2.515.102 3.45.102 3.222 0 9.647-.259 12.66-2.172zm0 5.406a1.008 1.008 0 0 0 0 .149c-.082 1.577-5.73 2.856-12.662 2.856-.69 0-1.36-.016-2.02-.04a14.166 14.166 0 0 0 .269-3.59c.644.02 1.241.027 1.751.027 3.223 0 9.648-.257 12.662-2.172zm-28.39-13.957C6.772 21.35.495 27.664.495 35.425.494 43.185 6.77 49.5 14.49 49.5c6.1 0 11.3-3.95 13.21-9.437.946.04 1.81.053 2.517.053 4.298 0 14.294-.458 14.294-4.693v-5.726a1.781 1.781 0 0 0 0-.753v-4.653a1.813 1.813 0 0 0 0-.754v-5.179c.025-.124.04-.253.04-.387 0-.223-.044-.431-.115-.631a2.5 2.5 0 0 0 .075-.583v-5.725a1.793 1.793 0 0 0 0-.753V5.1a2.03 2.03 0 0 0 .04-.389c0-.23-.047-.447-.121-.653a1.789 1.789 0 0 0-.755-1.026C40.755.54 31.453.455 30.217.455c-1.234 0-10.537.086-13.458 2.577a1.79 1.79 0 0 0-.753 1.025 1.867 1.867 0 0 0-.082 1.043v5.179a1.795 1.795 0 0 0 0 .753v5.654l.002.038-.002.033c0 .204.03.396.075.584a1.86 1.86 0 0 0-.115.63c0 .134.014.263.04.387v3.066c-.471-.049-.95-.073-1.434-.073z"/><path fill="none" stroke="#000" stroke-miterlimit="50" d="M26.692 35.425c0 6.766-5.475 12.271-12.202 12.271-6.73 0-12.203-5.505-12.203-12.27 0-6.768 5.474-12.273 12.203-12.273 6.727 0 12.202 5.505 12.202 12.272zm3.525-13.198c1.138 0 9.13-.073 12.662-2.036v3.78a.997.997 0 0 0 0 .147c-.082 1.579-5.73 2.856-12.662 2.856-1.663 0-3.25-.076-4.707-.208a13.997 13.997 0 0 0-7.956-5.071l-.002-1.505c3.531 1.964 11.527 2.037 12.665 2.037zm0-13.26c1.138 0 9.13-.073 12.662-2.035v3.778a1.02 1.02 0 0 0 0 .148c-.082 1.58-5.73 3.19-12.662 3.19s-12.582-1.612-12.66-3.19c.002-.031.002-.063.002-.09a.522.522 0 0 0-.003-.058l-.004-3.78c3.531 1.963 11.527 2.037 12.665 2.037zm0-6.435c7.188 0 11.643 1.342 12.394 2.18-.751.837-5.206 2.18-12.394 2.18-7.187 0-11.642-1.343-12.393-2.18.751-.838 5.206-2.18 12.393-2.18zm12.662 14.11a1.008 1.008 0 0 0-.004.103c0 .014.001.578.004.594-.082 1.578-5.73 2.852-12.662 2.852s-12.586-1.273-12.665-2.852c.003-.031.007-.61.007-.638a.542.542 0 0 0-.003-.06l-.002-3.296c3.012 1.917 9.44 2.524 12.663 2.524 3.223 0 9.648-.607 12.662-2.522zm0 13.26a.996.996 0 0 0 0 .149c-.082 1.577-5.73 2.856-12.662 2.856-.67 0-1.324-.015-1.968-.038a14.044 14.044 0 0 0-1.481-4.192c1.31.078 2.515.102 3.45.102 3.222 0 9.647-.259 12.66-2.172zm0 5.406a1.008 1.008 0 0 0 0 .149c-.082 1.577-5.73 2.856-12.662 2.856-.69 0-1.36-.016-2.02-.04a14.166 14.166 0 0 0 .269-3.59c.644.02 1.241.027 1.751.027 3.223 0 9.648-.257 12.662-2.172zm-28.39-13.957C6.772 21.35.495 27.664.495 35.425.494 43.185 6.77 49.5 14.49 49.5c6.1 0 11.3-3.95 13.21-9.437.946.04 1.81.053 2.517.053 4.298 0 14.294-.458 14.294-4.693v-5.726a1.781 1.781 0 0 0 0-.753v-4.653a1.813 1.813 0 0 0 0-.754v-5.179c.025-.124.04-.253.04-.387 0-.223-.044-.431-.115-.631a2.5 2.5 0 0 0 .075-.583v-5.725a1.793 1.793 0 0 0 0-.753V5.1a2.03 2.03 0 0 0 .04-.389c0-.23-.047-.447-.121-.653a1.789 1.789 0 0 0-.755-1.026C40.755.54 31.453.455 30.217.455c-1.234 0-10.537.086-13.458 2.577a1.79 1.79 0 0 0-.753 1.025 1.867 1.867 0 0 0-.082 1.043v5.179a1.795 1.795 0 0 0 0 .753v5.654l.002.038-.002.033c0 .204.03.396.075.584a1.86 1.86 0 0 0-.115.63c0 .134.014.263.04.387v3.066c-.471-.049-.95-.073-1.434-.073z"/></g><g><path fill="#bc0d40" d="M22.724 35.424c0 4.568-3.694 8.282-8.236 8.282-4.54 0-8.233-3.714-8.233-8.282 0-4.566 3.693-8.28 8.233-8.28 4.542 0 8.236 3.714 8.236 8.28zm-17.665 0c0 5.23 4.23 9.485 9.43 9.485 5.2 0 9.43-4.255 9.43-9.485 0-5.229-4.23-9.483-9.43-9.483-5.2 0-9.43 4.254-9.43 9.483z"/><path fill="none" stroke="#000" stroke-miterlimit="50" d="M22.724 35.424c0 4.568-3.694 8.282-8.236 8.282-4.54 0-8.233-3.714-8.233-8.282 0-4.566 3.693-8.28 8.233-8.28 4.542 0 8.236 3.714 8.236 8.28zm-17.665 0c0 5.23 4.23 9.485 9.43 9.485 5.2 0 9.43-4.255 9.43-9.485 0-5.229-4.23-9.483-9.43-9.483-5.2 0-9.43 4.254-9.43 9.483z"/></g><g><path fill="#bc0d40" d="M14.532 30.045h.319v.76a.6.6 0 0 0 .54.599c.433.042.83.15 1.18.322l-.154.408a3.614 3.614 0 0 0-1.592-.358c-.554.004-.995.158-1.307.463-.266.26-.412.612-.412.993 0 .228.04.418.122.592.082.176.2.328.368.477.267.238.692.47 1.377.753l.001.001c.538.222.928.44 1.229.69.297.246.505.532.618.85a2.2 2.2 0 0 1 .118.742c.001.488-.173.956-.488 1.318l-.001.001c-.298.345-.722.592-1.225.717a.598.598 0 0 0-.457.583v.899h-.334v-.813a.6.6 0 0 0-.545-.599 4.274 4.274 0 0 1-.817-.154 3.142 3.142 0 0 1-.683-.282l.149-.418a3.97 3.97 0 0 0 1.826.464c.557.011 1.017-.15 1.37-.446.35-.298.536-.702.543-1.177a1.601 1.601 0 0 0-.122-.623 1.633 1.633 0 0 0-.35-.514c-.272-.277-.68-.523-1.25-.754-.56-.221-.967-.429-1.276-.65-.335-.24-.56-.501-.688-.795a1.723 1.723 0 0 1-.136-.698c0-.485.175-.94.493-1.28.28-.299.67-.518 1.127-.63a.6.6 0 0 0 .457-.584zm-1.196-.6v1.016c-.493.187-.922.47-1.26.831a3.057 3.057 0 0 0-.816 2.105c0 .423.08.819.236 1.178.214.493.58.928 1.088 1.292.393.28.879.533 1.53.79.532.215.754.393.84.48a.356.356 0 0 1 .126.29.305.305 0 0 1-.116.26c-.125.104-.34.165-.59.165-.595.027-1.147-.225-1.464-.437l-.352-.237a.592.592 0 0 0-.52-.07.6.6 0 0 0-.374.368l-.556 1.565a.598.598 0 0 0 .214.69l.205.148c.33.235.737.425 1.21.563.165.048.333.09.502.122v.891a.6.6 0 0 0 .597.601h1.53a.6.6 0 0 0 .598-.6v-1.057a3.412 3.412 0 0 0 1.387-.954c.505-.582.784-1.33.784-2.108 0-.414-.063-.8-.189-1.148a3.133 3.133 0 0 0-.983-1.372c-.39-.323-.869-.597-1.504-.861a.952.952 0 0 0-.062-.026c-.642-.266-.902-.435-1.01-.53a.298.298 0 0 1-.077-.09.213.213 0 0 1-.008-.078c0-.038.008-.09.05-.133.08-.076.25-.12.475-.121a2.428 2.428 0 0 1 1.271.346l.337.194a.6.6 0 0 0 .856-.308l.58-1.54a.601.601 0 0 0-.257-.731l-.24-.143a4.338 4.338 0 0 0-1.328-.507v-.845c0-.331-.267-.6-.598-.6h-1.515a.6.6 0 0 0-.597.6z"/><path fill="none" stroke="#000" stroke-miterlimit="50" d="M14.532 30.045h.319v.76a.6.6 0 0 0 .54.599c.433.042.83.15 1.18.322l-.154.408a3.614 3.614 0 0 0-1.592-.358c-.554.004-.995.158-1.307.463-.266.26-.412.612-.412.993 0 .228.04.418.122.592.082.176.2.328.368.477.267.238.692.47 1.377.753l.001.001c.538.222.928.44 1.229.69.297.246.505.532.618.85a2.2 2.2 0 0 1 .118.742c.001.488-.173.956-.488 1.318l-.001.001c-.298.345-.722.592-1.225.717a.598.598 0 0 0-.457.583v.899h-.334v-.813a.6.6 0 0 0-.545-.599 4.274 4.274 0 0 1-.817-.154 3.142 3.142 0 0 1-.683-.282l.149-.418a3.97 3.97 0 0 0 1.826.464c.557.011 1.017-.15 1.37-.446.35-.298.536-.702.543-1.177a1.601 1.601 0 0 0-.122-.623 1.633 1.633 0 0 0-.35-.514c-.272-.277-.68-.523-1.25-.754-.56-.221-.967-.429-1.276-.65-.335-.24-.56-.501-.688-.795a1.723 1.723 0 0 1-.136-.698c0-.485.175-.94.493-1.28.28-.299.67-.518 1.127-.63a.6.6 0 0 0 .457-.584zm-1.196-.6v1.016c-.493.187-.922.47-1.26.831a3.057 3.057 0 0 0-.816 2.105c0 .423.08.819.236 1.178.214.493.58.928 1.088 1.292.393.28.879.533 1.53.79.532.215.754.393.84.48a.356.356 0 0 1 .126.29.305.305 0 0 1-.116.26c-.125.104-.34.165-.59.165-.595.027-1.147-.225-1.464-.437l-.352-.237a.592.592 0 0 0-.52-.07.6.6 0 0 0-.374.368l-.556 1.565a.598.598 0 0 0 .214.69l.205.148c.33.235.737.425 1.21.563.165.048.333.09.502.122v.891a.6.6 0 0 0 .597.601h1.53a.6.6 0 0 0 .598-.6v-1.057a3.412 3.412 0 0 0 1.387-.954c.505-.582.784-1.33.784-2.108 0-.414-.063-.8-.189-1.148a3.133 3.133 0 0 0-.983-1.372c-.39-.323-.869-.597-1.504-.861a.952.952 0 0 0-.062-.026c-.642-.266-.902-.435-1.01-.53a.298.298 0 0 1-.077-.09.213.213 0 0 1-.008-.078c0-.038.008-.09.05-.133.08-.076.25-.12.475-.121a2.428 2.428 0 0 1 1.271.346l.337.194a.6.6 0 0 0 .856-.308l.58-1.54a.601.601 0 0 0-.257-.731l-.24-.143a4.338 4.338 0 0 0-1.328-.507v-.845c0-.331-.267-.6-.598-.6h-1.515a.6.6 0 0 0-.597.6z"/></g></g></g></svg>